<svg width="1920" height="929" viewBox="0 0 1920 929" fill="none" xmlns="http://www.w3.org/2000/svg">
<g clip-path="url(#clip0_376_782)">
<path fill-rule="evenodd" clip-rule="evenodd" d="M278.65 0H0V185.8H278.65H433.456L812.73 470.306L448.936 743.2H309.611L0 743.2V929H464.417L510.859 929L967.536 586.431L1424.21 929L1455.37 929H1919.79V743.2L1625.46 743.2H1486.14L1122.34 470.306L1501.62 185.8H1702.86H1919.59V0H1702.86H1455.17H1439.69L967.536 354.181L495.378 0H464.417H278.65ZM0 371.601H433.456V557.401H0V371.601ZM1919.59 371.601H1486.14V557.401H1919.59V371.601Z" fill="#C14B38"/>
</g>
<defs>
<clipPath id="clip0_376_782">
<rect width="1920" height="929" fill="white"/>
</clipPath>
</defs>
</svg>
