<svg width="1905" height="690" viewBox="0 0 1905 690" fill="none" xmlns="http://www.w3.org/2000/svg">
<g clip-path="url(#clip0_373_688)">
<path fill-rule="evenodd" clip-rule="evenodd" d="M126.278 0H0V84.2L126.278 84.2H196.432L368.309 213.131L203.447 336.8H0V421L140.308 421H231.509L438.464 265.756L645.418 421H736.619L870 421V336.8L673.48 336.8L508.618 213.131L680.495 84.2H771.696L869.912 84.2V0H771.696H659.449H652.434L438.464 160.506L224.493 0H210.463H126.278ZM0 168.4H196.432V252.6H0V168.4ZM869.912 168.4H673.48V252.6H869.912V168.4Z" fill="#C14B38"/>
<path d="M968 421V0H1246.86V73.3872H1057.05V173.704H1228.35V247.091H1057.05V421H968Z" fill="#0F1521"/>
<path d="M1436.34 0V421H1347.29V0H1436.34Z" fill="#0F1521"/>
<path d="M1534.1 73.3872V0H1880V73.3872H1751.06V421H1663.04V73.3872H1534.1Z" fill="#0F1521"/>
<path d="M0 688.412V555.248H86.0502V575.469H24.3328V611.621H80.1474V631.843H24.3328V688.412H0Z" fill="#C14B38"/>
<path d="M152.868 555.248V688.412H128.535V555.248H152.868Z" fill="#C14B38"/>
<path d="M193.631 575.469V555.248H300.8V575.469H259.283V688.412H235.147V575.469H193.631Z" fill="#C14B38"/>
<path d="M452.159 555.248V688.412H430.516L367.224 597.707H366.109V688.412H341.776V555.248H363.551L426.777 646.018H427.958V555.248H452.159Z" fill="#C14B38"/>
<path d="M498.989 688.412V555.248H586.351V575.469H523.322V611.621H581.826V631.843H523.322V668.19H586.876V688.412H498.989Z" fill="#C14B38"/>
<path d="M704.49 591.855C703.878 586.176 701.299 581.755 696.751 578.591C692.248 575.426 686.388 573.844 679.174 573.844C674.102 573.844 669.751 574.603 666.122 576.12C662.493 577.637 659.716 579.696 657.792 582.297C655.869 584.898 654.885 587.867 654.841 591.205C654.841 593.979 655.475 596.385 656.743 598.422C658.055 600.459 659.826 602.193 662.056 603.624C664.286 605.011 666.756 606.181 669.467 607.135C672.178 608.089 674.911 608.89 677.665 609.541L690.258 612.662C695.33 613.832 700.205 615.414 704.884 617.408C709.606 619.402 713.826 621.916 717.542 624.951C721.303 627.985 724.276 631.648 726.462 635.939C728.648 640.231 729.741 645.259 729.741 651.024C729.741 658.827 727.73 665.697 723.707 671.636C719.685 677.531 713.869 682.148 706.261 685.486C698.697 688.78 689.537 690.427 678.78 690.427C668.33 690.427 659.257 688.823 651.562 685.616C643.91 682.408 637.92 677.726 633.591 671.571C629.306 665.416 626.988 657.917 626.639 649.074H650.578C650.928 653.712 652.371 657.57 654.907 660.647C657.443 663.725 660.744 666.023 664.81 667.54C668.92 669.057 673.511 669.815 678.584 669.815C683.874 669.815 688.509 669.035 692.488 667.475C696.511 665.871 699.659 663.66 701.933 660.843C704.206 657.982 705.365 654.644 705.409 650.829C705.365 647.361 704.337 644.5 702.326 642.246C700.315 639.949 697.494 638.042 693.865 636.525C690.28 634.964 686.082 633.577 681.273 632.363L665.991 628.462C654.928 625.644 646.184 621.375 639.756 615.653C633.372 609.887 630.18 602.237 630.18 592.7C630.18 584.854 632.323 577.984 636.608 572.088C640.937 566.193 646.818 561.62 654.251 558.369C661.684 555.074 670.101 553.427 679.502 553.427C689.034 553.427 697.385 555.074 704.556 558.369C711.771 561.62 717.433 566.15 721.543 571.958C725.653 577.724 727.774 584.356 727.905 591.855H704.49Z" fill="#C14B38"/>
<path d="M844.749 591.855C844.137 586.176 841.557 581.755 837.01 578.591C832.506 575.426 826.647 573.844 819.432 573.844C814.36 573.844 810.01 574.603 806.381 576.12C802.751 577.637 799.975 579.696 798.051 582.297C796.127 584.898 795.143 587.867 795.1 591.205C795.1 593.979 795.734 596.385 797.002 598.422C798.313 600.459 800.084 602.193 802.314 603.624C804.544 605.011 807.015 606.181 809.725 607.135C812.436 608.089 815.169 608.89 817.924 609.541L830.517 612.662C835.589 613.832 840.464 615.414 845.142 617.408C849.865 619.402 854.084 621.916 857.801 624.951C861.561 627.985 864.534 631.648 866.721 635.939C868.907 640.231 870 645.259 870 651.024C870 658.827 867.989 665.697 863.966 671.636C859.943 677.531 854.128 682.148 846.52 685.486C838.955 688.78 829.795 690.427 819.039 690.427C808.589 690.427 799.516 688.823 791.82 685.616C784.168 682.408 778.178 677.726 773.849 671.571C769.564 665.416 767.247 657.917 766.897 649.074H790.836C791.186 653.712 792.629 657.57 795.165 660.647C797.701 663.725 801.002 666.023 805.069 667.54C809.179 669.057 813.77 669.815 818.842 669.815C824.133 669.815 828.768 669.035 832.747 667.475C836.769 665.871 839.917 663.66 842.191 660.843C844.465 657.982 845.623 654.644 845.667 650.829C845.623 647.361 844.596 644.5 842.585 642.246C840.573 639.949 837.753 638.042 834.124 636.525C830.538 634.964 826.341 633.577 821.531 632.363L806.249 628.462C795.187 625.644 786.442 621.375 780.015 615.653C773.631 609.887 770.439 602.237 770.439 592.7C770.439 584.854 772.581 577.984 776.866 572.088C781.195 566.193 787.076 561.62 794.509 558.369C801.942 555.074 810.359 553.427 819.76 553.427C829.292 553.427 837.644 555.074 844.815 558.369C852.029 561.62 857.691 566.15 861.802 571.958C865.912 577.724 868.032 584.356 868.164 591.855H844.749Z" fill="#C14B38"/>
<path d="M968.847 687.99V555.242H1054.48V575.401H992.698V611.44H1050.04V631.598H992.698V667.832H1054.99V687.99H968.847Z" fill="#0F1521" fill-opacity="0.4"/>
<path d="M1116.34 555.242L1150.61 659.73H1151.96L1186.16 555.242H1212.39L1165.97 687.99H1136.53L1090.18 555.242H1116.34Z" fill="#0F1521" fill-opacity="0.4"/>
<path d="M1360.22 621.616C1360.22 635.92 1357.57 648.17 1352.25 658.368C1346.98 668.523 1339.78 676.301 1330.65 681.703C1321.56 687.105 1311.26 689.805 1299.73 689.805C1288.2 689.805 1277.87 687.105 1268.74 681.703C1259.65 676.258 1252.45 668.458 1247.14 658.304C1241.87 648.105 1239.23 635.876 1239.23 621.616C1239.23 607.313 1241.87 595.084 1247.14 584.929C1252.45 574.731 1259.65 566.931 1268.74 561.53C1277.87 556.128 1288.2 553.427 1299.73 553.427C1311.26 553.427 1321.56 556.128 1330.65 561.53C1339.78 566.931 1346.98 574.731 1352.25 584.929C1357.57 595.084 1360.22 607.313 1360.22 621.616ZM1336.24 621.616C1336.24 611.548 1334.68 603.057 1331.55 596.143C1328.46 589.185 1324.18 583.935 1318.69 580.392C1313.21 576.805 1306.88 575.012 1299.73 575.012C1292.57 575.012 1286.25 576.805 1280.76 580.392C1275.28 583.935 1270.97 589.185 1267.84 596.143C1264.75 603.057 1263.21 611.548 1263.21 621.616C1263.21 631.685 1264.75 640.198 1267.84 647.155C1270.97 654.069 1275.28 659.319 1280.76 662.906C1286.25 666.449 1292.57 668.221 1299.73 668.221C1306.88 668.221 1313.21 666.449 1318.69 662.906C1324.18 659.319 1328.46 654.069 1331.55 647.155C1334.68 640.198 1336.24 631.685 1336.24 621.616Z" fill="#0F1521" fill-opacity="0.4"/>
<path d="M1402.69 687.99V555.242H1426.54V667.832H1484.53V687.99H1402.69Z" fill="#0F1521" fill-opacity="0.4"/>
<path d="M1529.14 555.242L1563.41 659.73H1564.76L1598.96 555.242H1625.19L1578.77 687.99H1549.33L1502.98 555.242H1529.14Z" fill="#0F1521" fill-opacity="0.4"/>
<path d="M1662.45 687.99V555.242H1748.08V575.401H1686.3V611.44H1743.64V631.598H1686.3V667.832H1748.59V687.99H1662.45Z" fill="#0F1521" fill-opacity="0.4"/>
<path d="M1836.94 687.99H1792.33V555.242H1837.84C1850.92 555.242 1862.15 557.9 1871.53 563.215C1880.96 568.487 1888.2 576.07 1893.26 585.966C1898.32 595.862 1900.85 607.702 1900.85 621.487C1900.85 635.315 1898.3 647.198 1893.2 657.137C1888.14 667.076 1880.83 674.703 1871.27 680.018C1861.76 685.333 1850.32 687.99 1836.94 687.99ZM1816.18 667.184H1835.79C1844.96 667.184 1852.61 665.498 1858.74 662.128C1864.87 658.714 1869.47 653.637 1872.56 646.895C1875.65 640.111 1877.19 631.642 1877.19 621.487C1877.19 611.332 1875.65 602.905 1872.56 596.207C1869.47 589.466 1864.91 584.432 1858.87 581.105C1852.87 577.734 1845.41 576.049 1836.49 576.049H1816.18V667.184Z" fill="#0F1521" fill-opacity="0.4"/>
</g>
<defs>
<clipPath id="clip0_373_688">
<rect width="1905" height="690" fill="white"/>
</clipPath>
</defs>
</svg>
